<svg width="460" height="809" viewBox="0 0 460 809" fill="none" xmlns="http://www.w3.org/2000/svg">
<g opacity="0.2">
<path fill-rule="evenodd" clip-rule="evenodd" d="M230 523C357.025 523 460 420.025 460 293C460 165.975 357.025 63 230 63C102.975 63 0 165.975 0 293C0 420.025 102.975 523 230 523Z" fill="#89C5CC"/>
<path fill-rule="evenodd" clip-rule="evenodd" d="M370 809C392.644 809 411 790.644 411 768C411 745.356 392.644 727 370 727C347.356 727 329 745.356 329 768C329 790.644 347.356 809 370 809Z" fill="#FF4133"/>
<path fill-rule="evenodd" clip-rule="evenodd" d="M192 0L241 49L192 98L143 49L192 0Z" fill="#FF4133"/>
<path fill-rule="evenodd" clip-rule="evenodd" d="M56 690L80 714L56 738L32 714L56 690Z" fill="#89C5CC"/>
<path fill-rule="evenodd" clip-rule="evenodd" d="M403 63L415 75L403 87L391 75L403 63Z" fill="#2026A2"/>
</g>
</svg>
